<svg width="57" height="41" viewBox="0 0 57 41" fill="none" xmlns="http://www.w3.org/2000/svg">
<path d="M4.07143 0H24.4286C25.5084 0 26.544 0.428953 27.3075 1.19249C28.071 1.95604 28.5 2.99162 28.5 4.07143C28.5 5.15124 28.071 6.18682 27.3075 6.95036C26.544 7.71391 25.5084 8.14286 24.4286 8.14286H4.07143C2.99162 8.14286 1.95603 7.71391 1.19249 6.95036C0.428953 6.18682 0 5.15124 0 4.07143C0 2.99162 0.428953 1.95604 1.19249 1.19249C1.95603 0.428953 2.99162 0 4.07143 0ZM32.5714 32.5714H52.9286C54.0084 32.5714 55.044 33.0004 55.8075 33.7639C56.571 34.5275 57 35.563 57 36.6429C57 37.7227 56.571 38.7583 55.8075 39.5218C55.044 40.2853 54.0084 40.7143 52.9286 40.7143H32.5714C31.4916 40.7143 30.456 40.2853 29.6925 39.5218C28.929 38.7583 28.5 37.7227 28.5 36.6429C28.5 35.563 28.929 34.5275 29.6925 33.7639C30.456 33.0004 31.4916 32.5714 32.5714 32.5714ZM4.07143 16.2857H52.9286C54.0084 16.2857 55.044 16.7147 55.8075 17.4782C56.571 18.2418 57 19.2773 57 20.3571C57 21.437 56.571 22.4725 55.8075 23.2361C55.044 23.9996 54.0084 24.4286 52.9286 24.4286H4.07143C2.99162 24.4286 1.95603 23.9996 1.19249 23.2361C0.428953 22.4725 0 21.437 0 20.3571C0 19.2773 0.428953 18.2418 1.19249 17.4782C1.95603 16.7147 2.99162 16.2857 4.07143 16.2857Z" fill="#FFFFFC"/>
</svg>
